HIERARCHY
ROOT Hips
{
	OFFSET 52.947701 -11.712015 95.681801
	CHANNELS 6 Xposition Yposition Zposition Xrotation Yrotation Zrotation
	JOINT spine
	{
		OFFSET 0.000000 -0.458069 7.965683
		CHANNELS 3 Xrotation Yrotation Zrotation
		JOINT spine1
		{
			OFFSET 0.000000 -0.000001 10.243103
			CHANNELS 3 Xrotation Yrotation Zrotation
			JOINT spine2
			{
				OFFSET 0.000000 -0.000002 9.814751
				CHANNELS 3 Xrotation Yrotation Zrotation
				JOINT Neck
				{
					OFFSET 0.000000 -1.201384 25.198593
					CHANNELS 3 Xrotation Yrotation Zrotation
					JOINT Head
					{
						OFFSET 0.000000 -0.000002 7.613144
						CHANNELS 3 Xrotation Yrotation Zrotation
						End Site
						{
							OFFSET 0.000000 6.077327 18.428101
						}
					}
				}
				JOINT RightShoulder
				{
					OFFSET -4.132698 0.575449 10.599197
					CHANNELS 3 Xrotation Yrotation Zrotation
					JOINT RightArm
					{
						OFFSET 0.000000 -0.000002 13.901794
						CHANNELS 3 Xrotation Yrotation Zrotation
						JOINT RightArmRoll
						{
							OFFSET 0.000000 -0.000002 7.017883
							CHANNELS 3 Xrotation Yrotation Zrotation
							JOINT RightForeArm
							{
								OFFSET 0.000000 -0.000003 20.440598
								CHANNELS 3 Xrotation Yrotation Zrotation
								JOINT RightForeArmRoll
								{
									OFFSET 0.000000 -0.000001 7.875153
									CHANNELS 3 Xrotation Yrotation Zrotation
									JOINT RightHand
									{
										OFFSET 0.000000 -0.000003 15.803696
										CHANNELS 3 Xrotation Yrotation Zrotation
										End Site
										{
											OFFSET 0.000000 0.000000 0.100006
										}
									}
								}
							}
						}
					}
				}
				JOINT LeftShoulder
				{
					OFFSET 4.132698 0.575449 10.599197
					CHANNELS 3 Xrotation Yrotation Zrotation
					JOINT LeftArm
					{
						OFFSET 0.000000 -0.000002 13.901794
						CHANNELS 3 Xrotation Yrotation Zrotation
						JOINT LeftArmRoll
						{
							OFFSET 0.000000 -0.000002 7.017883
							CHANNELS 3 Xrotation Yrotation Zrotation
							JOINT LeftForeArm
							{
								OFFSET 0.000000 -0.000003 20.440598
								CHANNELS 3 Xrotation Yrotation Zrotation
								JOINT LeftForeArmRoll
								{
									OFFSET 0.000000 -0.000001 7.875153
									CHANNELS 3 Xrotation Yrotation Zrotation
									JOINT LeftHand
									{
										OFFSET 0.000000 -0.000003 15.803696
										CHANNELS 3 Xrotation Yrotation Zrotation
										End Site
										{
											OFFSET 0.000000 0.000000 0.100006
										}
									}
								}
							}
						}
					}
				}
			}
		}
	}
	JOINT RightUpLeg
	{
		OFFSET -7.060478 1.086100 -1.294701
		CHANNELS 3 Xrotation Yrotation Zrotation
		JOINT RightUpLegRoll
		{
			OFFSET 0.000000 -0.000003 18.530800
			CHANNELS 3 Xrotation Yrotation Zrotation
			JOINT RightLeg
			{
				OFFSET 0.000000 0.000004 -22.947601
				CHANNELS 3 Xrotation Yrotation Zrotation
				JOINT RightLegRoll
				{
					OFFSET 0.000000 -0.000004 23.022598
					CHANNELS 3 Xrotation Yrotation Zrotation
					JOINT RightFoot
					{
						OFFSET 0.000000 -0.000004 19.162498
						CHANNELS 3 Xrotation Yrotation Zrotation
						JOINT RightToeBase
						{
							OFFSET 0.000000 -0.000002 16.018799
							CHANNELS 3 Xrotation Yrotation Zrotation
							End Site
							{
								OFFSET 0.006790 0.894204 7.757812
							}
						}
					}
				}
			}
		}
	}
	JOINT LeftUpLeg
	{
		OFFSET 7.060478 1.086100 -1.294701
		CHANNELS 3 Xrotation Yrotation Zrotation
		JOINT LeftUpLegRoll
		{
			OFFSET 0.000000 -0.000003 18.530899
			CHANNELS 3 Xrotation Yrotation Zrotation
			JOINT LeftLeg
			{
				OFFSET 0.000000 -0.000004 22.947495
				CHANNELS 3 Xrotation Yrotation Zrotation
				JOINT LeftLegRoll
				{
					OFFSET 0.000000 -0.000004 23.235504
					CHANNELS 3 Xrotation Yrotation Zrotation
					JOINT LeftFoot
					{
						OFFSET 0.000000 -0.000003 18.949600
						CHANNELS 3 Xrotation Yrotation Zrotation
						JOINT LeftToeBase
						{
							OFFSET 0.000000 -0.000003 16.018799
							CHANNELS 3 Xrotation Yrotation Zrotation
							End Site
							{
								OFFSET -0.030430 0.894206 7.757812
							}
						}
					}
				}
			}
		}
	}
}
MOTION
Frames: 5
Frame Time: 0.041667
52.401791 -11.513010 95.598709 -1.249018 0.685488 2.633276 -2.022860 -0.098359 -0.057757 -0.042992 -0.193604 -0.119066 1.602079 -0.195015 -0.116737 22.326929 -2.595335 -0.012938 -1.924629 1.383889 -0.231527 12.637148 -74.414057 11.799663 -61.078571 -111.117978 -32.920231 0.000001 0.000000 0.000001 -0.013016 1.027891 0.068117 -0.000003 -0.000007 -3.044070 -5.000156 -8.000089 -0.000001 6.357181 72.232051 -5.360173 -55.126569 114.283688 28.285803 0.000002 -0.000001 0.000001 -0.028603 -3.815761 -0.537230 0.000002 -0.000032 3.042711 -5.000165 7.999921 0.000022 2.462411 -175.354274 -1.718237 -179.999991 0.000006 -1.167998 176.343012 -2.327256 -0.531706 0.000001 -0.000003 0.046110 69.115927 6.953891 1.956075 25.515334 -7.355542 0.079636 -0.205460 173.230044 0.042842 -0.000005 -0.000005 -1.121230 -6.773170 1.894813 0.371857 -0.000005 0.000001 -0.065166 69.757466 -6.680171 -2.630189 25.456955 7.355613 -0.000022 
52.431393 -11.511806 95.598389 -1.256809 0.685356 2.639296 -2.023024 -0.100230 -0.055560 -0.043329 -0.195622 -0.115855 1.601739 -0.196993 -0.113502 22.334507 -2.572044 -0.022273 -1.917111 1.360689 -0.238284 12.594550 -74.404270 11.755636 -61.065566 -111.100765 -32.836380 -0.000001 -0.000001 -0.000001 -0.012971 1.091900 0.073961 -0.000001 -0.000006 -3.044090 -5.000157 -8.000089 0.000002 6.383029 72.260874 -5.384136 -55.232386 114.283313 28.293560 0.000003 -0.000000 0.000000 -0.029280 -3.922271 -0.544827 0.000005 -0.000032 3.042788 -5.000164 7.999920 0.000023 2.474954 -175.353332 -1.715398 -179.999991 0.000005 -1.167999 176.344365 -2.328254 -0.531715 0.000001 -0.000003 0.046111 69.115934 6.953892 1.956075 25.517054 -7.355549 0.082747 -0.196155 173.231042 0.042873 -0.000005 -0.000005 -1.121230 -6.772113 1.893368 0.371856 -0.000005 0.000001 -0.065166 69.757378 -6.680239 -2.630006 25.456957 7.355615 -0.000022 
52.421989 -11.514609 95.598511 -1.264621 0.685065 2.645403 -2.023186 -0.102048 -0.053367 -0.043638 -0.197410 -0.112714 1.601429 -0.198744 -0.110341 22.341107 -2.549910 -0.031350 -1.908582 1.338068 -0.244845 12.551167 -74.394523 11.710756 -61.054665 -111.084837 -32.755784 0.000000 -0.000000 -0.000003 -0.012910 1.155801 0.079681 -0.000002 -0.000006 -3.044138 -5.000155 -8.000090 0.000003 6.406417 72.287546 -5.405738 -55.329238 114.285942 28.293543 0.000000 -0.000001 -0.000002 -0.029957 -4.028601 -0.552316 0.000002 -0.000033 3.042868 -5.000162 7.999921 0.000025 2.487607 -175.352375 -1.712470 -179.999991 0.000005 -1.167998 176.345731 -2.328258 -0.531659 0.000001 -0.000003 0.046111 69.115832 6.953922 1.956087 25.518975 -7.355548 0.086048 -0.186597 173.232039 0.042851 -0.000005 -0.000005 -1.121230 -6.770677 1.892023 0.371853 -0.000005 0.000002 -0.065167 69.757180 -6.680261 -2.630023 25.456950 7.355614 -0.000021 
52.425594 -11.515711 95.601303 -1.272448 0.684661 2.651558 -2.023332 -0.103827 -0.051178 -0.043929 -0.199037 -0.109621 1.601140 -0.200335 -0.107229 22.347230 -2.528574 -0.040252 -1.899340 1.315867 -0.251267 12.507255 -74.384804 11.665295 -61.043190 -111.070426 -32.675137 -0.000001 0.000000 0.000001 -0.012835 1.219631 0.085310 -0.000003 -0.000006 -3.044191 -5.000154 -8.000090 0.000001 6.428209 72.312866 -5.425808 -55.424229 114.289214 28.292935 -0.000000 -0.000000 -0.000001 -0.030643 -4.134801 -0.559724 0.000003 -0.000033 3.042943 -5.000161 7.999921 0.000025 2.500343 -175.351406 -1.709483 -179.999991 0.000005 -1.167998 176.347138 -2.329257 -0.531666 0.000001 -0.000003 0.046111 69.115832 6.953922 1.955986 25.520893 -7.355547 0.089459 -0.176859 173.234033 0.042789 -0.000005 -0.000005 -1.121230 -6.768972 1.890758 0.371851 -0.000006 0.000001 -0.065167 69.756886 -6.680354 -2.629756 25.456959 7.355614 -0.000021 
52.432697 -11.521907 95.601410 -1.280283 0.684193 2.657751 -2.023474 -0.105584 -0.048991 -0.044208 -0.200573 -0.106558 1.600860 -0.201833 -0.104147 22.352959 -2.507701 -0.049039 -1.889705 1.293896 -0.257606 12.463187 -74.375187 11.619648 -61.030267 -111.057018 -32.593424 0.000001 -0.000000 -0.000001 -0.012750 1.283411 0.090886 -0.000001 -0.000006 -3.044248 -5.000157 -8.000090 0.000002 6.449060 72.337318 -5.444973 -55.515378 114.293606 28.289033 0.000003 0.000000 0.000002 -0.031328 -4.240930 -0.567091 0.000004 -0.000032 3.043012 -5.000163 7.999920 0.000024 2.513108 -175.350449 -1.706466 -179.999991 0.000006 -1.167999 176.348518 -2.330269 -0.531674 0.000002 -0.000003 0.046111 69.115818 6.953886 1.956081 25.522909 -7.355544 0.092953 -0.167024 173.235030 0.042708 -0.000005 -0.000004 -1.121230 -6.767126 1.889534 0.371847 -0.000006 0.000001 -0.065167 69.756606 -6.680443 -2.629590 25.456955 7.355614 -0.000022 
